<mxfile host="65bd71144e">
    <diagram id="8GrroOFT-FIv1B-f2B1y" name="Page-1">
        <mxGraphModel dx="650" dy="478" grid="1" gridSize="10" guides="1" tooltips="1" connect="1" arrows="1" fold="1" page="1" pageScale="1" pageWidth="827" pageHeight="1169" math="0" shadow="0">
            <root>
                <mxCell id="0"/>
                <mxCell id="1" parent="0"/>
                <mxCell id="2" value="user" style="swimlane;fontStyle=1;align=center;verticalAlign=top;childLayout=stackLayout;horizontal=1;startSize=26;horizontalStack=0;resizeParent=1;resizeParentMax=0;resizeLast=0;collapsible=1;marginBottom=0;" parent="1" vertex="1">
                    <mxGeometry x="254" y="100" width="160" height="106" as="geometry">
                        <mxRectangle x="160" y="110" width="100" height="26" as="alternateBounds"/>
                    </mxGeometry>
                </mxCell>
                <mxCell id="3" value="- name :string" style="text;strokeColor=none;fillColor=none;align=left;verticalAlign=top;spacingLeft=4;spacingRight=4;overflow=hidden;rotatable=0;points=[[0,0.5],[1,0.5]];portConstraint=eastwest;" parent="2" vertex="1">
                    <mxGeometry y="26" width="160" height="24" as="geometry"/>
                </mxCell>
                <mxCell id="7" value="- email : string " style="text;strokeColor=none;fillColor=none;align=left;verticalAlign=top;spacingLeft=4;spacingRight=4;overflow=hidden;rotatable=0;points=[[0,0.5],[1,0.5]];portConstraint=eastwest;" parent="2" vertex="1">
                    <mxGeometry y="50" width="160" height="24" as="geometry"/>
                </mxCell>
                <mxCell id="6" value="- password : string" style="text;strokeColor=none;fillColor=none;align=left;verticalAlign=top;spacingLeft=4;spacingRight=4;overflow=hidden;rotatable=0;points=[[0,0.5],[1,0.5]];portConstraint=eastwest;" parent="2" vertex="1">
                    <mxGeometry y="74" width="160" height="24" as="geometry"/>
                </mxCell>
                <mxCell id="4" value="" style="line;strokeWidth=1;fillColor=none;align=left;verticalAlign=middle;spacingTop=-1;spacingLeft=3;spacingRight=3;rotatable=0;labelPosition=right;points=[];portConstraint=eastwest;" parent="2" vertex="1">
                    <mxGeometry y="98" width="160" height="8" as="geometry"/>
                </mxCell>
                <mxCell id="10" value="Customer" style="swimlane;fontStyle=1;align=center;verticalAlign=top;childLayout=stackLayout;horizontal=1;startSize=26;horizontalStack=0;resizeParent=1;resizeParentMax=0;resizeLast=0;collapsible=1;marginBottom=0;" parent="1" vertex="1">
                    <mxGeometry x="160" y="330" width="160" height="140" as="geometry"/>
                </mxCell>
                <mxCell id="11" value="- phoneNumber : Integer" style="text;strokeColor=none;fillColor=none;align=left;verticalAlign=top;spacingLeft=4;spacingRight=4;overflow=hidden;rotatable=0;points=[[0,0.5],[1,0.5]];portConstraint=eastwest;" parent="10" vertex="1">
                    <mxGeometry y="26" width="160" height="26" as="geometry"/>
                </mxCell>
                <mxCell id="12" value="" style="line;strokeWidth=1;fillColor=none;align=left;verticalAlign=middle;spacingTop=-1;spacingLeft=3;spacingRight=3;rotatable=0;labelPosition=right;points=[];portConstraint=eastwest;" parent="10" vertex="1">
                    <mxGeometry y="52" width="160" height="8" as="geometry"/>
                </mxCell>
                <mxCell id="5" value="- buy product()" style="text;strokeColor=none;fillColor=none;align=left;verticalAlign=top;spacingLeft=4;spacingRight=4;overflow=hidden;rotatable=0;points=[[0,0.5],[1,0.5]];portConstraint=eastwest;" parent="10" vertex="1">
                    <mxGeometry y="60" width="160" height="26" as="geometry"/>
                </mxCell>
                <mxCell id="9" value="- make Ordres()" style="text;strokeColor=none;fillColor=none;align=left;verticalAlign=top;spacingLeft=4;spacingRight=4;overflow=hidden;rotatable=0;points=[[0,0.5],[1,0.5]];portConstraint=eastwest;" parent="10" vertex="1">
                    <mxGeometry y="86" width="160" height="26" as="geometry"/>
                </mxCell>
                <mxCell id="8" value="- addToCart()" style="text;strokeColor=none;fillColor=none;align=left;verticalAlign=top;spacingLeft=4;spacingRight=4;overflow=hidden;rotatable=0;points=[[0,0.5],[1,0.5]];portConstraint=eastwest;" parent="10" vertex="1">
                    <mxGeometry y="112" width="160" height="28" as="geometry"/>
                </mxCell>
                <mxCell id="13" value="" style="endArrow=block;html=1;endFill=0;strokeWidth=2;exitX=0.556;exitY=-0.007;exitDx=0;exitDy=0;exitPerimeter=0;" edge="1" parent="1" source="10">
                    <mxGeometry width="50" height="50" relative="1" as="geometry">
                        <mxPoint x="250" y="310" as="sourcePoint"/>
                        <mxPoint x="330" y="210" as="targetPoint"/>
                        <Array as="points">
                            <mxPoint x="250" y="257"/>
                            <mxPoint x="330" y="257"/>
                        </Array>
                    </mxGeometry>
                </mxCell>
                <mxCell id="15" value="admin" style="swimlane;fontStyle=1;align=center;verticalAlign=top;childLayout=stackLayout;horizontal=1;startSize=26;horizontalStack=0;resizeParent=1;resizeParentMax=0;resizeLast=0;collapsible=1;marginBottom=0;" vertex="1" parent="1">
                    <mxGeometry x="360" y="320" width="160" height="114" as="geometry"/>
                </mxCell>
                <mxCell id="17" value="" style="line;strokeWidth=1;fillColor=none;align=left;verticalAlign=middle;spacingTop=-1;spacingLeft=3;spacingRight=3;rotatable=0;labelPosition=right;points=[];portConstraint=eastwest;" vertex="1" parent="15">
                    <mxGeometry y="26" width="160" height="8" as="geometry"/>
                </mxCell>
                <mxCell id="18" value="- manageProduct()" style="text;strokeColor=none;fillColor=none;align=left;verticalAlign=top;spacingLeft=4;spacingRight=4;overflow=hidden;rotatable=0;points=[[0,0.5],[1,0.5]];portConstraint=eastwest;" vertex="1" parent="15">
                    <mxGeometry y="34" width="160" height="26" as="geometry"/>
                </mxCell>
                <mxCell id="19" value="-blockCustomer()" style="text;strokeColor=none;fillColor=none;align=left;verticalAlign=top;spacingLeft=4;spacingRight=4;overflow=hidden;rotatable=0;points=[[0,0.5],[1,0.5]];portConstraint=eastwest;" vertex="1" parent="15">
                    <mxGeometry y="60" width="160" height="26" as="geometry"/>
                </mxCell>
                <mxCell id="20" value="- validateOrders()" style="text;strokeColor=none;fillColor=none;align=left;verticalAlign=top;spacingLeft=4;spacingRight=4;overflow=hidden;rotatable=0;points=[[0,0.5],[1,0.5]];portConstraint=eastwest;" vertex="1" parent="15">
                    <mxGeometry y="86" width="160" height="28" as="geometry"/>
                </mxCell>
                <mxCell id="21" value="" style="endArrow=block;html=1;exitX=0.5;exitY=0;exitDx=0;exitDy=0;endFill=0;strokeWidth=2;" edge="1" parent="1" source="15">
                    <mxGeometry width="50" height="50" relative="1" as="geometry">
                        <mxPoint x="190" y="313.05999999999995" as="sourcePoint"/>
                        <mxPoint x="351.03999999999996" y="206" as="targetPoint"/>
                        <Array as="points">
                            <mxPoint x="440" y="253"/>
                            <mxPoint x="351.03999999999996" y="253"/>
                        </Array>
                    </mxGeometry>
                </mxCell>
                <mxCell id="DjEaegbtSFw7E5hdSFnb-22" value="Product" style="swimlane;fontStyle=1;align=center;verticalAlign=top;childLayout=stackLayout;horizontal=1;startSize=26;horizontalStack=0;resizeParent=1;resizeParentMax=0;resizeLast=0;collapsible=1;marginBottom=0;" vertex="1" parent="1">
                    <mxGeometry x="240" y="528" width="160" height="170" as="geometry"/>
                </mxCell>
                <mxCell id="DjEaegbtSFw7E5hdSFnb-23" value="" style="line;strokeWidth=1;fillColor=none;align=left;verticalAlign=middle;spacingTop=-1;spacingLeft=3;spacingRight=3;rotatable=0;labelPosition=right;points=[];portConstraint=eastwest;" vertex="1" parent="DjEaegbtSFw7E5hdSFnb-22">
                    <mxGeometry y="26" width="160" height="8" as="geometry"/>
                </mxCell>
                <mxCell id="DjEaegbtSFw7E5hdSFnb-24" value="+ title : string " style="text;strokeColor=none;fillColor=none;align=left;verticalAlign=top;spacingLeft=4;spacingRight=4;overflow=hidden;rotatable=0;points=[[0,0.5],[1,0.5]];portConstraint=eastwest;" vertex="1" parent="DjEaegbtSFw7E5hdSFnb-22">
                    <mxGeometry y="34" width="160" height="26" as="geometry"/>
                </mxCell>
                <mxCell id="DjEaegbtSFw7E5hdSFnb-25" value="+ price : float" style="text;strokeColor=none;fillColor=none;align=left;verticalAlign=top;spacingLeft=4;spacingRight=4;overflow=hidden;rotatable=0;points=[[0,0.5],[1,0.5]];portConstraint=eastwest;" vertex="1" parent="DjEaegbtSFw7E5hdSFnb-22">
                    <mxGeometry y="60" width="160" height="26" as="geometry"/>
                </mxCell>
                <mxCell id="DjEaegbtSFw7E5hdSFnb-26" value="+ description : string " style="text;strokeColor=none;fillColor=none;align=left;verticalAlign=top;spacingLeft=4;spacingRight=4;overflow=hidden;rotatable=0;points=[[0,0.5],[1,0.5]];portConstraint=eastwest;" vertex="1" parent="DjEaegbtSFw7E5hdSFnb-22">
                    <mxGeometry y="86" width="160" height="28" as="geometry"/>
                </mxCell>
                <mxCell id="DjEaegbtSFw7E5hdSFnb-27" value="+ image : string " style="text;strokeColor=none;fillColor=none;align=left;verticalAlign=top;spacingLeft=4;spacingRight=4;overflow=hidden;rotatable=0;points=[[0,0.5],[1,0.5]];portConstraint=eastwest;" vertex="1" parent="DjEaegbtSFw7E5hdSFnb-22">
                    <mxGeometry y="114" width="160" height="28" as="geometry"/>
                </mxCell>
                <mxCell id="DjEaegbtSFw7E5hdSFnb-28" value="+ quantity: integer" style="text;strokeColor=none;fillColor=none;align=left;verticalAlign=top;spacingLeft=4;spacingRight=4;overflow=hidden;rotatable=0;points=[[0,0.5],[1,0.5]];portConstraint=eastwest;" vertex="1" parent="DjEaegbtSFw7E5hdSFnb-22">
                    <mxGeometry y="142" width="160" height="28" as="geometry"/>
                </mxCell>
                <mxCell id="DjEaegbtSFw7E5hdSFnb-29" value="" style="endArrow=none;html=1;strokeWidth=2;entryX=0.481;entryY=1.071;entryDx=0;entryDy=0;entryPerimeter=0;exitX=1.038;exitY=-0.036;exitDx=0;exitDy=0;exitPerimeter=0;" edge="1" parent="1" source="DjEaegbtSFw7E5hdSFnb-26" target="20">
                    <mxGeometry width="50" height="50" relative="1" as="geometry">
                        <mxPoint x="437" y="620" as="sourcePoint"/>
                        <mxPoint x="360" y="470" as="targetPoint"/>
                        <Array as="points">
                            <mxPoint x="437" y="613"/>
                        </Array>
                    </mxGeometry>
                </mxCell>
                <mxCell id="DjEaegbtSFw7E5hdSFnb-30" value="manage" style="edgeLabel;html=1;align=center;verticalAlign=middle;resizable=0;points=[];" vertex="1" connectable="0" parent="DjEaegbtSFw7E5hdSFnb-29">
                    <mxGeometry x="0.3788" y="1" relative="1" as="geometry">
                        <mxPoint as="offset"/>
                    </mxGeometry>
                </mxCell>
                <mxCell id="DjEaegbtSFw7E5hdSFnb-31" value="1" style="edgeLabel;html=1;align=center;verticalAlign=middle;resizable=0;points=[];" vertex="1" connectable="0" parent="DjEaegbtSFw7E5hdSFnb-29">
                    <mxGeometry x="0.887" y="1" relative="1" as="geometry">
                        <mxPoint as="offset"/>
                    </mxGeometry>
                </mxCell>
                <mxCell id="DjEaegbtSFw7E5hdSFnb-32" value="0..N" style="edgeLabel;html=1;align=center;verticalAlign=middle;resizable=0;points=[];" vertex="1" connectable="0" parent="DjEaegbtSFw7E5hdSFnb-29">
                    <mxGeometry x="-0.9038" y="3" relative="1" as="geometry">
                        <mxPoint as="offset"/>
                    </mxGeometry>
                </mxCell>
                <mxCell id="DjEaegbtSFw7E5hdSFnb-33" style="edgeStyle=none;html=1;exitX=0.5;exitY=0;exitDx=0;exitDy=0;entryX=0.444;entryY=0;entryDx=0;entryDy=0;entryPerimeter=0;endArrow=block;endFill=0;strokeWidth=2;" edge="1" parent="1" source="10" target="10">
                    <mxGeometry relative="1" as="geometry"/>
                </mxCell>
                <mxCell id="DjEaegbtSFw7E5hdSFnb-34" value="" style="endArrow=none;html=1;strokeWidth=2;entryX=0.163;entryY=1.179;entryDx=0;entryDy=0;entryPerimeter=0;exitX=-0.006;exitY=0.036;exitDx=0;exitDy=0;exitPerimeter=0;" edge="1" parent="1" source="DjEaegbtSFw7E5hdSFnb-26" target="8">
                    <mxGeometry width="50" height="50" relative="1" as="geometry">
                        <mxPoint x="170" y="640" as="sourcePoint"/>
                        <mxPoint x="360" y="460" as="targetPoint"/>
                        <Array as="points">
                            <mxPoint x="186" y="615"/>
                        </Array>
                    </mxGeometry>
                </mxCell>
                <mxCell id="DjEaegbtSFw7E5hdSFnb-51" value="1" style="edgeLabel;html=1;align=center;verticalAlign=middle;resizable=0;points=[];" vertex="1" connectable="0" parent="DjEaegbtSFw7E5hdSFnb-34">
                    <mxGeometry x="0.8136" y="2" relative="1" as="geometry">
                        <mxPoint as="offset"/>
                    </mxGeometry>
                </mxCell>
                <mxCell id="DjEaegbtSFw7E5hdSFnb-52" value="1..N" style="edgeLabel;html=1;align=center;verticalAlign=middle;resizable=0;points=[];" vertex="1" connectable="0" parent="DjEaegbtSFw7E5hdSFnb-34">
                    <mxGeometry x="-0.8234" y="2" relative="1" as="geometry">
                        <mxPoint as="offset"/>
                    </mxGeometry>
                </mxCell>
                <mxCell id="DjEaegbtSFw7E5hdSFnb-53" value="buy" style="edgeLabel;html=1;align=center;verticalAlign=middle;resizable=0;points=[];" vertex="1" connectable="0" parent="DjEaegbtSFw7E5hdSFnb-34">
                    <mxGeometry x="0.1609" relative="1" as="geometry">
                        <mxPoint as="offset"/>
                    </mxGeometry>
                </mxCell>
                <mxCell id="DjEaegbtSFw7E5hdSFnb-54" value="" style="endArrow=diamondThin;endFill=1;endSize=24;html=1;strokeWidth=2;startArrow=none;" edge="1" parent="1" source="DjEaegbtSFw7E5hdSFnb-40">
                    <mxGeometry width="160" relative="1" as="geometry">
                        <mxPoint x="130" y="840" as="sourcePoint"/>
                        <mxPoint x="290" y="840" as="targetPoint"/>
                    </mxGeometry>
                </mxCell>
                <mxCell id="DjEaegbtSFw7E5hdSFnb-40" value="orders" style="swimlane;fontStyle=1;align=center;verticalAlign=top;childLayout=stackLayout;horizontal=1;startSize=26;horizontalStack=0;resizeParent=1;resizeParentMax=0;resizeLast=0;collapsible=1;marginBottom=0;" vertex="1" parent="1">
                    <mxGeometry x="254" y="840" width="160" height="138" as="geometry"/>
                </mxCell>
                <mxCell id="DjEaegbtSFw7E5hdSFnb-41" value="- orderid: object" style="text;strokeColor=none;fillColor=none;align=left;verticalAlign=top;spacingLeft=4;spacingRight=4;overflow=hidden;rotatable=0;points=[[0,0.5],[1,0.5]];portConstraint=eastwest;" vertex="1" parent="DjEaegbtSFw7E5hdSFnb-40">
                    <mxGeometry y="26" width="160" height="26" as="geometry"/>
                </mxCell>
                <mxCell id="DjEaegbtSFw7E5hdSFnb-46" value="- productList :Array" style="text;strokeColor=none;fillColor=none;align=left;verticalAlign=top;spacingLeft=4;spacingRight=4;overflow=hidden;rotatable=0;points=[[0,0.5],[1,0.5]];portConstraint=eastwest;" vertex="1" parent="DjEaegbtSFw7E5hdSFnb-40">
                    <mxGeometry y="52" width="160" height="26" as="geometry"/>
                </mxCell>
                <mxCell id="DjEaegbtSFw7E5hdSFnb-47" value="- orderOwner: objectId" style="text;strokeColor=none;fillColor=none;align=left;verticalAlign=top;spacingLeft=4;spacingRight=4;overflow=hidden;rotatable=0;points=[[0,0.5],[1,0.5]];portConstraint=eastwest;" vertex="1" parent="DjEaegbtSFw7E5hdSFnb-40">
                    <mxGeometry y="78" width="160" height="26" as="geometry"/>
                </mxCell>
                <mxCell id="DjEaegbtSFw7E5hdSFnb-42" value="" style="line;strokeWidth=1;fillColor=none;align=left;verticalAlign=middle;spacingTop=-1;spacingLeft=3;spacingRight=3;rotatable=0;labelPosition=right;points=[];portConstraint=eastwest;" vertex="1" parent="DjEaegbtSFw7E5hdSFnb-40">
                    <mxGeometry y="104" width="160" height="8" as="geometry"/>
                </mxCell>
                <mxCell id="DjEaegbtSFw7E5hdSFnb-43" value="-submitOrder()" style="text;strokeColor=none;fillColor=none;align=left;verticalAlign=top;spacingLeft=4;spacingRight=4;overflow=hidden;rotatable=0;points=[[0,0.5],[1,0.5]];portConstraint=eastwest;" vertex="1" parent="DjEaegbtSFw7E5hdSFnb-40">
                    <mxGeometry y="112" width="160" height="26" as="geometry"/>
                </mxCell>
                <mxCell id="DjEaegbtSFw7E5hdSFnb-56" value="" style="endArrow=diamondThin;endFill=1;endSize=24;html=1;strokeWidth=2;exitX=0.425;exitY=-0.022;exitDx=0;exitDy=0;exitPerimeter=0;" edge="1" parent="1" source="DjEaegbtSFw7E5hdSFnb-40">
                    <mxGeometry width="160" relative="1" as="geometry">
                        <mxPoint x="130" y="840" as="sourcePoint"/>
                        <mxPoint x="320" y="700" as="targetPoint"/>
                    </mxGeometry>
                </mxCell>
                <mxCell id="DjEaegbtSFw7E5hdSFnb-57" value="1" style="edgeLabel;html=1;align=center;verticalAlign=middle;resizable=0;points=[];" vertex="1" connectable="0" parent="DjEaegbtSFw7E5hdSFnb-56">
                    <mxGeometry x="-0.8109" y="-1" relative="1" as="geometry">
                        <mxPoint as="offset"/>
                    </mxGeometry>
                </mxCell>
                <mxCell id="DjEaegbtSFw7E5hdSFnb-58" value="1..N" style="edgeLabel;html=1;align=center;verticalAlign=middle;resizable=0;points=[];" vertex="1" connectable="0" parent="DjEaegbtSFw7E5hdSFnb-56">
                    <mxGeometry x="0.7954" y="-1" relative="1" as="geometry">
                        <mxPoint x="19" y="-4" as="offset"/>
                    </mxGeometry>
                </mxCell>
            </root>
        </mxGraphModel>
    </diagram>
    <diagram id="PhL3KpKg_fE_wih6XuLS" name="Page-2">
        <mxGraphModel dx="650" dy="478" grid="1" gridSize="10" guides="1" tooltips="1" connect="1" arrows="1" fold="1" page="1" pageScale="1" pageWidth="827" pageHeight="1169" math="0" shadow="0">
            <root>
                <mxCell id="cfIzxNBTOO8p9V3pzueE-0"/>
                <mxCell id="cfIzxNBTOO8p9V3pzueE-1" parent="cfIzxNBTOO8p9V3pzueE-0"/>
            </root>
        </mxGraphModel>
    </diagram>
</mxfile>